<mxfile host="app.diagrams.net" agent="Mozilla/5.0 (Windows NT 10.0; Win64; x64) AppleWebKit/537.36 (KHTML, like Gecko) Chrome/132.0.0.0 YaBrowser/25.2.0.0 Safari/537.36" version="26.1.3">
  <diagram name="Page-1" id="e7e014a7-5840-1c2e-5031-d8a46d1fe8dd">
    <mxGraphModel dx="1466" dy="776" grid="1" gridSize="10" guides="1" tooltips="1" connect="1" arrows="1" fold="1" page="1" pageScale="1" pageWidth="1169" pageHeight="826" background="none" math="0" shadow="0">
      <root>
        <mxCell id="0" />
        <mxCell id="1" parent="0" />
        <mxCell id="PFTojvezoIKX9bUq_aog-49" value="Pool" style="swimlane;childLayout=stackLayout;resizeParent=1;resizeParentMax=0;startSize=20;html=1;direction=east;" vertex="1" parent="1">
          <mxGeometry x="1180" y="430" width="700" height="790" as="geometry" />
        </mxCell>
        <mxCell id="PFTojvezoIKX9bUq_aog-50" value="Customer" style="swimlane;startSize=20;html=1;" vertex="1" parent="PFTojvezoIKX9bUq_aog-49">
          <mxGeometry y="20" width="250" height="770" as="geometry" />
        </mxCell>
        <mxCell id="PFTojvezoIKX9bUq_aog-53" value="Applying for assurance&amp;nbsp;" style="rounded=1;whiteSpace=wrap;html=1;" vertex="1" parent="PFTojvezoIKX9bUq_aog-50">
          <mxGeometry x="64.99999999999955" y="63" width="120" height="60" as="geometry" />
        </mxCell>
        <mxCell id="PFTojvezoIKX9bUq_aog-94" style="edgeStyle=orthogonalEdgeStyle;rounded=0;orthogonalLoop=1;jettySize=auto;html=1;" edge="1" parent="PFTojvezoIKX9bUq_aog-50" source="PFTojvezoIKX9bUq_aog-65" target="PFTojvezoIKX9bUq_aog-91">
          <mxGeometry relative="1" as="geometry" />
        </mxCell>
        <mxCell id="PFTojvezoIKX9bUq_aog-121" style="edgeStyle=orthogonalEdgeStyle;rounded=0;orthogonalLoop=1;jettySize=auto;html=1;" edge="1" parent="PFTojvezoIKX9bUq_aog-50" source="PFTojvezoIKX9bUq_aog-65" target="PFTojvezoIKX9bUq_aog-68">
          <mxGeometry relative="1" as="geometry">
            <Array as="points">
              <mxPoint x="60" y="390" />
              <mxPoint x="180" y="390" />
            </Array>
          </mxGeometry>
        </mxCell>
        <mxCell id="PFTojvezoIKX9bUq_aog-122" style="edgeStyle=orthogonalEdgeStyle;rounded=0;orthogonalLoop=1;jettySize=auto;html=1;" edge="1" parent="PFTojvezoIKX9bUq_aog-50" source="PFTojvezoIKX9bUq_aog-65" target="PFTojvezoIKX9bUq_aog-117">
          <mxGeometry relative="1" as="geometry" />
        </mxCell>
        <mxCell id="PFTojvezoIKX9bUq_aog-65" value="Consideration of the proposal" style="rounded=1;whiteSpace=wrap;html=1;" vertex="1" parent="PFTojvezoIKX9bUq_aog-50">
          <mxGeometry x="-4.547473508864641e-13" y="300" width="120" height="60" as="geometry" />
        </mxCell>
        <mxCell id="PFTojvezoIKX9bUq_aog-88" style="edgeStyle=orthogonalEdgeStyle;rounded=0;orthogonalLoop=1;jettySize=auto;html=1;" edge="1" parent="PFTojvezoIKX9bUq_aog-50" source="PFTojvezoIKX9bUq_aog-86" target="PFTojvezoIKX9bUq_aog-65">
          <mxGeometry relative="1" as="geometry" />
        </mxCell>
        <mxCell id="PFTojvezoIKX9bUq_aog-86" value="" style="line;strokeWidth=4;direction=west;html=1;perimeter=backbonePerimeter;points=[];outlineConnect=0;" vertex="1" parent="PFTojvezoIKX9bUq_aog-50">
          <mxGeometry x="23.5" y="250" width="73" height="10" as="geometry" />
        </mxCell>
        <mxCell id="PFTojvezoIKX9bUq_aog-68" value="Accepting of proposal" style="rounded=1;whiteSpace=wrap;html=1;" vertex="1" parent="PFTojvezoIKX9bUq_aog-50">
          <mxGeometry x="140" y="430" width="80" height="49" as="geometry" />
        </mxCell>
        <mxCell id="PFTojvezoIKX9bUq_aog-91" value="Rejecting of proposal" style="rounded=1;whiteSpace=wrap;html=1;" vertex="1" parent="PFTojvezoIKX9bUq_aog-50">
          <mxGeometry x="20" y="430" width="80" height="49" as="geometry" />
        </mxCell>
        <mxCell id="PFTojvezoIKX9bUq_aog-113" value="Receiving of assurance policy" style="rounded=1;whiteSpace=wrap;html=1;" vertex="1" parent="PFTojvezoIKX9bUq_aog-50">
          <mxGeometry x="64.99999999999955" y="660" width="120" height="60" as="geometry" />
        </mxCell>
        <mxCell id="PFTojvezoIKX9bUq_aog-123" style="edgeStyle=orthogonalEdgeStyle;rounded=0;orthogonalLoop=1;jettySize=auto;html=1;" edge="1" parent="PFTojvezoIKX9bUq_aog-50" source="PFTojvezoIKX9bUq_aog-117">
          <mxGeometry relative="1" as="geometry">
            <mxPoint x="210" y="100.00000000000011" as="targetPoint" />
          </mxGeometry>
        </mxCell>
        <mxCell id="PFTojvezoIKX9bUq_aog-117" value="Requesting a review of the contract" style="rounded=1;whiteSpace=wrap;html=1;" vertex="1" parent="PFTojvezoIKX9bUq_aog-50">
          <mxGeometry x="170" y="305.5" width="80" height="49" as="geometry" />
        </mxCell>
        <mxCell id="PFTojvezoIKX9bUq_aog-51" value="Manager&amp;nbsp;" style="swimlane;startSize=20;html=1;" vertex="1" parent="PFTojvezoIKX9bUq_aog-49">
          <mxGeometry x="250" y="20" width="220" height="770" as="geometry" />
        </mxCell>
        <mxCell id="PFTojvezoIKX9bUq_aog-78" style="edgeStyle=orthogonalEdgeStyle;rounded=0;orthogonalLoop=1;jettySize=auto;html=1;" edge="1" parent="PFTojvezoIKX9bUq_aog-51" source="PFTojvezoIKX9bUq_aog-58">
          <mxGeometry relative="1" as="geometry">
            <mxPoint x="250" y="93" as="targetPoint" />
          </mxGeometry>
        </mxCell>
        <mxCell id="PFTojvezoIKX9bUq_aog-58" value="Registering of request" style="rounded=1;whiteSpace=wrap;html=1;" vertex="1" parent="PFTojvezoIKX9bUq_aog-51">
          <mxGeometry x="49.999999999999545" y="63" width="120" height="60" as="geometry" />
        </mxCell>
        <mxCell id="PFTojvezoIKX9bUq_aog-63" value="Creation of proposal" style="rounded=1;whiteSpace=wrap;html=1;" vertex="1" parent="PFTojvezoIKX9bUq_aog-51">
          <mxGeometry x="39.999999999999545" y="176.5" width="120" height="60" as="geometry" />
        </mxCell>
        <mxCell id="PFTojvezoIKX9bUq_aog-75" value="Signing of contact" style="rounded=1;whiteSpace=wrap;html=1;" vertex="1" parent="PFTojvezoIKX9bUq_aog-51">
          <mxGeometry x="49.999999999999545" y="479" width="120" height="60" as="geometry" />
        </mxCell>
        <mxCell id="PFTojvezoIKX9bUq_aog-109" value="Creating of assurance policy" style="rounded=1;whiteSpace=wrap;html=1;" vertex="1" parent="PFTojvezoIKX9bUq_aog-51">
          <mxGeometry x="19.999999999999545" y="580" width="120" height="60" as="geometry" />
        </mxCell>
        <mxCell id="PFTojvezoIKX9bUq_aog-112" style="edgeStyle=orthogonalEdgeStyle;rounded=0;orthogonalLoop=1;jettySize=auto;html=1;" edge="1" parent="PFTojvezoIKX9bUq_aog-51" source="PFTojvezoIKX9bUq_aog-110" target="PFTojvezoIKX9bUq_aog-109">
          <mxGeometry relative="1" as="geometry" />
        </mxCell>
        <mxCell id="PFTojvezoIKX9bUq_aog-110" value="" style="line;strokeWidth=4;direction=south;html=1;perimeter=backbonePerimeter;points=[];outlineConnect=0;" vertex="1" parent="PFTojvezoIKX9bUq_aog-51">
          <mxGeometry x="190" y="573.5" width="10" height="73" as="geometry" />
        </mxCell>
        <mxCell id="PFTojvezoIKX9bUq_aog-52" value="Underraiter" style="swimlane;startSize=20;html=1;" vertex="1" parent="PFTojvezoIKX9bUq_aog-49">
          <mxGeometry x="470" y="20" width="230" height="770" as="geometry" />
        </mxCell>
        <mxCell id="PFTojvezoIKX9bUq_aog-82" style="edgeStyle=orthogonalEdgeStyle;rounded=0;orthogonalLoop=1;jettySize=auto;html=1;" edge="1" parent="PFTojvezoIKX9bUq_aog-52" source="PFTojvezoIKX9bUq_aog-59" target="PFTojvezoIKX9bUq_aog-64">
          <mxGeometry relative="1" as="geometry" />
        </mxCell>
        <mxCell id="PFTojvezoIKX9bUq_aog-59" value="Application analysis and risk assessment" style="rounded=1;whiteSpace=wrap;html=1;" vertex="1" parent="PFTojvezoIKX9bUq_aog-52">
          <mxGeometry x="89.99999999999955" y="63" width="120" height="60" as="geometry" />
        </mxCell>
        <mxCell id="PFTojvezoIKX9bUq_aog-64" value="Analysis of client&#39;s assurance history" style="rounded=1;whiteSpace=wrap;html=1;" vertex="1" parent="PFTojvezoIKX9bUq_aog-52">
          <mxGeometry x="89.99999999999955" y="176.5" width="120" height="60" as="geometry" />
        </mxCell>
        <mxCell id="PFTojvezoIKX9bUq_aog-81" style="edgeStyle=orthogonalEdgeStyle;rounded=0;orthogonalLoop=1;jettySize=auto;html=1;" edge="1" parent="PFTojvezoIKX9bUq_aog-52" source="PFTojvezoIKX9bUq_aog-80" target="PFTojvezoIKX9bUq_aog-59">
          <mxGeometry relative="1" as="geometry" />
        </mxCell>
        <mxCell id="PFTojvezoIKX9bUq_aog-80" value="" style="line;strokeWidth=4;direction=south;html=1;perimeter=backbonePerimeter;points=[];outlineConnect=0;" vertex="1" parent="PFTojvezoIKX9bUq_aog-52">
          <mxGeometry x="30" y="56.5" width="10" height="73" as="geometry" />
        </mxCell>
        <mxCell id="PFTojvezoIKX9bUq_aog-111" style="edgeStyle=orthogonalEdgeStyle;rounded=0;orthogonalLoop=1;jettySize=auto;html=1;exitX=0.5;exitY=1;exitDx=0;exitDy=0;" edge="1" parent="PFTojvezoIKX9bUq_aog-52" source="PFTojvezoIKX9bUq_aog-103">
          <mxGeometry relative="1" as="geometry">
            <mxPoint x="344.99999999999955" y="530" as="sourcePoint" />
            <mxPoint x="-23.952380952380736" y="610.047619047619" as="targetPoint" />
            <Array as="points">
              <mxPoint x="345" y="610" />
            </Array>
          </mxGeometry>
        </mxCell>
        <mxCell id="PFTojvezoIKX9bUq_aog-77" style="edgeStyle=orthogonalEdgeStyle;rounded=0;orthogonalLoop=1;jettySize=auto;html=1;" edge="1" parent="PFTojvezoIKX9bUq_aog-49" source="PFTojvezoIKX9bUq_aog-53" target="PFTojvezoIKX9bUq_aog-58">
          <mxGeometry relative="1" as="geometry" />
        </mxCell>
        <mxCell id="PFTojvezoIKX9bUq_aog-84" style="edgeStyle=orthogonalEdgeStyle;rounded=0;orthogonalLoop=1;jettySize=auto;html=1;" edge="1" parent="PFTojvezoIKX9bUq_aog-49" source="PFTojvezoIKX9bUq_aog-64" target="PFTojvezoIKX9bUq_aog-63">
          <mxGeometry relative="1" as="geometry">
            <mxPoint x="435.8235294117644" y="226.5" as="targetPoint" />
          </mxGeometry>
        </mxCell>
        <mxCell id="PFTojvezoIKX9bUq_aog-93" style="edgeStyle=orthogonalEdgeStyle;rounded=0;orthogonalLoop=1;jettySize=auto;html=1;" edge="1" parent="PFTojvezoIKX9bUq_aog-49" source="PFTojvezoIKX9bUq_aog-63" target="PFTojvezoIKX9bUq_aog-86">
          <mxGeometry relative="1" as="geometry" />
        </mxCell>
        <mxCell id="PFTojvezoIKX9bUq_aog-115" style="edgeStyle=orthogonalEdgeStyle;rounded=0;orthogonalLoop=1;jettySize=auto;html=1;" edge="1" parent="PFTojvezoIKX9bUq_aog-49" source="PFTojvezoIKX9bUq_aog-109" target="PFTojvezoIKX9bUq_aog-113">
          <mxGeometry relative="1" as="geometry" />
        </mxCell>
        <mxCell id="PFTojvezoIKX9bUq_aog-120" style="edgeStyle=orthogonalEdgeStyle;rounded=0;orthogonalLoop=1;jettySize=auto;html=1;" edge="1" parent="PFTojvezoIKX9bUq_aog-49" source="PFTojvezoIKX9bUq_aog-68" target="PFTojvezoIKX9bUq_aog-75">
          <mxGeometry relative="1" as="geometry">
            <Array as="points">
              <mxPoint x="180" y="529" />
            </Array>
          </mxGeometry>
        </mxCell>
        <mxCell id="PFTojvezoIKX9bUq_aog-97" value="Accounting department" style="swimlane;startSize=20;html=1;" vertex="1" parent="1">
          <mxGeometry x="1880" y="450" width="180" height="770" as="geometry" />
        </mxCell>
        <mxCell id="PFTojvezoIKX9bUq_aog-103" value="&lt;span style=&quot;background-color: transparent; color: light-dark(rgb(0, 0, 0), rgb(255, 255, 255));&quot;&gt;Payment of policy&lt;/span&gt;" style="rounded=1;whiteSpace=wrap;html=1;" vertex="1" parent="PFTojvezoIKX9bUq_aog-97">
          <mxGeometry x="54.999999999999545" y="424.5" width="120" height="60" as="geometry" />
        </mxCell>
        <mxCell id="PFTojvezoIKX9bUq_aog-106" style="edgeStyle=orthogonalEdgeStyle;rounded=0;orthogonalLoop=1;jettySize=auto;html=1;" edge="1" parent="1" source="PFTojvezoIKX9bUq_aog-68" target="PFTojvezoIKX9bUq_aog-103">
          <mxGeometry relative="1" as="geometry" />
        </mxCell>
        <mxCell id="PFTojvezoIKX9bUq_aog-124" value="" style="ellipse;html=1;shape=endState;fillColor=#000000;strokeColor=#ff0000;" vertex="1" parent="1">
          <mxGeometry x="1080" y="1125" width="30" height="30" as="geometry" />
        </mxCell>
        <mxCell id="PFTojvezoIKX9bUq_aog-125" value="" style="ellipse;html=1;shape=endState;fillColor=#000000;strokeColor=#ff0000;" vertex="1" parent="1">
          <mxGeometry x="1080" y="890" width="30" height="30" as="geometry" />
        </mxCell>
        <mxCell id="PFTojvezoIKX9bUq_aog-126" style="edgeStyle=orthogonalEdgeStyle;rounded=0;orthogonalLoop=1;jettySize=auto;html=1;entryX=1;entryY=0.5;entryDx=0;entryDy=0;" edge="1" parent="1" source="PFTojvezoIKX9bUq_aog-91" target="PFTojvezoIKX9bUq_aog-125">
          <mxGeometry relative="1" as="geometry" />
        </mxCell>
        <mxCell id="PFTojvezoIKX9bUq_aog-127" style="edgeStyle=orthogonalEdgeStyle;rounded=0;orthogonalLoop=1;jettySize=auto;html=1;" edge="1" parent="1" source="PFTojvezoIKX9bUq_aog-113">
          <mxGeometry relative="1" as="geometry">
            <mxPoint x="1110" y="1140" as="targetPoint" />
          </mxGeometry>
        </mxCell>
        <mxCell id="PFTojvezoIKX9bUq_aog-130" style="edgeStyle=orthogonalEdgeStyle;rounded=0;orthogonalLoop=1;jettySize=auto;html=1;entryX=0;entryY=0.5;entryDx=0;entryDy=0;" edge="1" parent="1" source="5" target="PFTojvezoIKX9bUq_aog-53">
          <mxGeometry relative="1" as="geometry" />
        </mxCell>
        <mxCell id="5" value="" style="ellipse;shape=startState;fillColor=#000000;strokeColor=#ff0000;" parent="1" vertex="1">
          <mxGeometry x="1080" y="528" width="30" height="30" as="geometry" />
        </mxCell>
        <mxCell id="PFTojvezoIKX9bUq_aog-131" value="Start" style="text;html=1;align=center;verticalAlign=middle;resizable=0;points=[];autosize=1;strokeColor=none;fillColor=none;" vertex="1" parent="1">
          <mxGeometry x="1070" y="558" width="50" height="30" as="geometry" />
        </mxCell>
        <mxCell id="PFTojvezoIKX9bUq_aog-132" value="End" style="text;html=1;align=center;verticalAlign=middle;resizable=0;points=[];autosize=1;strokeColor=none;fillColor=none;" vertex="1" parent="1">
          <mxGeometry x="1075" y="920" width="40" height="30" as="geometry" />
        </mxCell>
        <mxCell id="PFTojvezoIKX9bUq_aog-133" value="End" style="text;html=1;align=center;verticalAlign=middle;resizable=0;points=[];autosize=1;strokeColor=none;fillColor=none;" vertex="1" parent="1">
          <mxGeometry x="1075" y="1155" width="40" height="30" as="geometry" />
        </mxCell>
      </root>
    </mxGraphModel>
  </diagram>
</mxfile>
